<svg xmlns="http://www.w3.org/2000/svg" width="17.99" height="17.999" viewBox="0 0 17.99 17.999">
  <g id="analysis" transform="translate(-3.005 -3.001)">
    <path id="Path_3" data-name="Path 3" d="M16.576,14.475c-.006-.545-.006-1.093-.006-1.623V11.521c0-.7,0-1.207.006-1.633,0-.016,0-.035,0-.054a.837.837,0,0,0-.449-.742l0,0c-.88-.524-1.872-1.119-2.657-1.6-.6-.363-.9-.551-1.216-.738a.817.817,0,0,0-.942,0l0,0c-1.272.78-2.473,1.508-3.9,2.349a.791.791,0,0,0-.428.7c0,.014,0,.027,0,.041v0C7,11.421,7,12.984,6.988,14.5c0,.014,0,.029,0,.045a.791.791,0,0,0,.42.7l0,0c1.6.954,2.816,1.684,3.922,2.365l.063.038a.864.864,0,0,0,.39.1h0a.81.81,0,0,0,.438-.139l0,0c1.532-.931,2.74-1.659,3.922-2.362a.812.812,0,0,0,.432-.717c0-.02,0-.039,0-.059v0Zm-5.461,1.432-.472-.284c-.885-.531-1.57-.944-2.217-1.339a.306.306,0,0,1-.078-.09h0l-.012-.044c-.008-.888-.008-1.758-.008-2.679v-.523l.186.1c.043.023.084.046.123.07L9.1,11.4c.647.388,1.26.761,1.826,1.106a.439.439,0,0,1,.166.2v0l.008.034c.012.84.012,1.657.012,2.524Zm.759-4.517-.029.018h-.06a.343.343,0,0,1-.056-.005H11.72l-.027-.009c-.767-.459-1.514-.9-2.306-1.386l-.44-.264.623-.357c.232-.134.449-.276.659-.413l.041-.026c.214-.141.48-.315.763-.476l.02-.012a1.78,1.78,0,0,1,.685-.285l.011,0,.025-.005.05.01.8.388,1.353.813s.3.172.448.262l.182.107L13.2,10.6c-.444.264-.88.526-1.321.794ZM15.238,12.5c0,.495,0,1.006-.006,1.508a.507.507,0,0,1-.07.247v0l-.034.037c-.625.388-1.237.757-1.885,1.146l-.24.146c-.116.075-.233.144-.363.219l-.191.11v-.563c0-.9,0-1.75.005-2.614a.261.261,0,0,1,.058-.142h0l.024-.023c.464-.286.92-.561,1.388-.843l1.314-.791Z"/>
    <path id="Path_4" data-name="Path 4" d="M20.308,15.845a.689.689,0,0,0-.688.688v3.092H16.538a.687.687,0,1,0,0,1.374h3.771A.687.687,0,0,0,21,20.312h0V16.533h0a.688.688,0,0,0-.687-.688h0Z"/>
    <path id="Path_5" data-name="Path 5" d="M7.463,19.627H4.382V16.533c0-.008,0-.017,0-.026a.688.688,0,0,0-1.376,0,.272.272,0,0,0,0,.028h0v3.78A.69.69,0,0,0,3.694,21h3.77a.687.687,0,0,0,0-1.374h0Z"/>
    <path id="Path_6" data-name="Path 6" d="M3.7,8.158a.689.689,0,0,0,.688-.688V4.379H7.463A.689.689,0,1,0,7.463,3H3.692a.685.685,0,0,0-.486.2h0a.676.676,0,0,0-.2.482v0h0V7.473a.688.688,0,0,0,.688.685h0Z"/>
    <path id="Path_7" data-name="Path 7" d="M20.8,3.2A.683.683,0,0,0,20.31,3H16.537a.689.689,0,1,0,0,1.378h3.082V7.473c0,.008,0,.017,0,.026a.688.688,0,1,0,1.376,0,.272.272,0,0,0,0-.028h0V3.683a.673.673,0,0,0-.2-.479h0Z"/>
  </g>
</svg>
