<svg xmlns="http://www.w3.org/2000/svg" width="17.837" height="17.365" viewBox="0 0 17.837 17.365">
  <g id="arrow-down-to-line" transform="translate(-3.081 -3.317)">
    <path id="Path_15" data-name="Path 15" d="M11.282,14.2,8.716,11.634a.714.714,0,0,0-1,1.018h0l3.812,3.81a.711.711,0,0,0,.972-.033l3.788-3.787a.713.713,0,0,0-1.018-1h0L12.71,14.2V4a.715.715,0,0,0-1.428,0h0Z"/>
    <path id="Path_16" data-name="Path 16" d="M20.2,19.254H3.8a.714.714,0,0,0,0,1.428H20.2a.714.714,0,1,0,0-1.428Z"/>
  </g>
</svg>
