<svg xmlns="http://www.w3.org/2000/svg" width="16.598" height="20.005" viewBox="0 0 16.598 20.005">
  <path id="bookmark" d="M20.3,20.949V3.7A1.791,1.791,0,0,0,18.511,2l-.075,0H5.489A1.789,1.789,0,0,0,3.7,3.7V20.951a1.028,1.028,0,0,0,.568.907l.006,0A1.208,1.208,0,0,0,4.85,22a1.22,1.22,0,0,0,.58-.146l-.007,0L12,18.341l6.578,3.519a1.26,1.26,0,0,0,.565.131,1.274,1.274,0,0,0,.615-.157l-.007,0a1,1,0,0,0,.548-.887h0Zm-1.574-.688L12,16.662l-6.725,3.6V3.949a.518.518,0,0,1,.513-.508H18.133a.428.428,0,0,1,.052,0,.546.546,0,0,1,.544.509v0Z" transform="translate(-3.702 -1.998)"/>
</svg>
