<svg xmlns="http://www.w3.org/2000/svg" width="17.499" height="16.144" viewBox="0 0 17.499 16.144">
  <path id="calender-days-2" d="M6.532,20.072a3.3,3.3,0,0,1-3.281-3.3v-.029h0V8.35a3.3,3.3,0,0,1,3.272-3.3h.211V4.526a.595.595,0,0,1,1.188,0h0V5.05h8.041V4.526a.6.6,0,1,1,1.2,0h0V5.05h.309a3.3,3.3,0,0,1,3.282,3.3v.023h0v8.389a3.3,3.3,0,0,1-3.276,3.3H6.534ZM4.674,16.743v.01A1.878,1.878,0,0,0,6.531,18.63H17.466a1.877,1.877,0,0,0,1.859-1.877v-.011h0V9.837H4.677Zm0-8.358v.262H19.325V8.374A1.875,1.875,0,0,0,17.467,6.5h-.31v.123a.6.6,0,1,1-1.2,0h0V6.5H7.923v.123c0,.01,0,.021,0,.033a.594.594,0,0,1-1.188,0V6.644h0V6.5h-.2A1.874,1.874,0,0,0,4.676,8.374v0h0Zm6.8,7.9a.6.6,0,0,1,0-1.2h1.178a.6.6,0,0,1,0,1.2h-.025Zm-4.311,0H7.134a.6.6,0,1,1,0-1.2H8.311a.6.6,0,0,1,0,1.2h0ZM15.685,12.9a.6.6,0,0,1,0-1.19h1.152a.6.6,0,0,1,0,1.19H15.685Zm-4.215,0a.6.6,0,1,1,0-1.19h1.152a.6.6,0,0,1,0,1.19H11.47Zm-4.311,0a.6.6,0,0,1,0-1.19H8.311a.6.6,0,1,1,0,1.19H7.159Z" transform="translate(-3.251 -3.928)"/>
</svg>
