<svg xmlns="http://www.w3.org/2000/svg" width="20.404" height="17.029" viewBox="0 0 20.404 17.029">
  <g id="chart-simple" transform="translate(-1.797 -3.485)">
    <path id="Path_134" data-name="Path 134" d="M6.923,3.488H2.679a.887.887,0,0,0-.882.887h0V19.622a.888.888,0,0,0,.887.886H6.923a.887.887,0,0,0,.887-.886V4.371a.887.887,0,0,0-.887-.886h0ZM3.152,19.159V4.842h3.3V19.159Z"/>
    <path id="Path_135" data-name="Path 135" d="M14.115,7.722H9.879a.893.893,0,0,0-.889.891V19.627a.89.89,0,0,0,.888.887h4.236a.89.89,0,0,0,.887-.89V8.607a.889.889,0,0,0-.887-.886h0Zm-.461,1.357v10.08h-3.3V9.079Z"/>
    <path id="Path_136" data-name="Path 136" d="M21.316,11.111H17.08a.892.892,0,0,0-.89.89v7.625a.887.887,0,0,0,.887.886h4.237a.889.889,0,0,0,.887-.889V12a.89.89,0,0,0-.886-.886h0Zm-.462,1.356v6.692h-3.3V12.467Z"/>
  </g>
</svg>
