<svg xmlns="http://www.w3.org/2000/svg" width="16.374" height="17.997" viewBox="0 0 16.374 17.997">
  <path id="clipboard-pen" d="M17.884,20.994a1.961,1.961,0,0,1-1.268-.592h0c-1.324-1.31-2.634-2.6-3.9-3.858a.9.9,0,0,1-.212-.356l0-.006c-.162-.558-.319-1.118-.477-1.677-.1-.359-.2-.715-.3-1.079a.645.645,0,0,1,.159-.682h0a.67.67,0,0,1,.469-.192.681.681,0,0,1,.252.049l0,0,.818.244c.55.165,1.236.369,1.89.572a.927.927,0,0,1,.351.21h0l.728.715c1.144,1.122,2.175,2.136,3.195,3.171A1.939,1.939,0,0,1,20,19.738l0-.012A2.134,2.134,0,0,1,18.062,21h0a1.055,1.055,0,0,1-.178,0ZM17.4,19.287v.049l.012.017a.815.815,0,0,0,.668.349.791.791,0,0,0,.208-.027h-.006a.728.728,0,0,0,.56-.58v0a.763.763,0,0,0,.018-.164.771.771,0,0,0-.362-.654l0,0-.041-.027Zm-3.97-4.665c.093.329.176.629.267.927a.729.729,0,0,0,.173.3h0l.041.041,1.173,1.167.419.413c.064.064.9.9.907.886l1.106-1.1L14.9,14.69a.322.322,0,0,0-.134-.089h0c-.3-.094-.612-.185-.93-.28l-.524-.156ZM6.277,21a.5.5,0,0,0-.08-.027H6.192A2.77,2.77,0,0,1,4.4,19.925l-.005-.006a3.325,3.325,0,0,1-.583-1.889c0-.1.005-.2.014-.305V8.073c-.006-.106-.009-.231-.009-.356,0-.163.005-.324.016-.484v.022A2.876,2.876,0,0,1,6.6,4.768H8.951V3.6A.631.631,0,0,1,9.579,3h2.915a.634.634,0,0,1,.631.634v0h0V4.776h2.361a2.763,2.763,0,0,1,2.732,2.35l0,.015a3.129,3.129,0,0,1,.031.428v3.122a.645.645,0,0,1-.467.621h0a.643.643,0,0,1-.181.026.654.654,0,0,1-.624-.458v-.005a.982.982,0,0,1-.027-.231c0-.02,0-.04,0-.059V7.606c0-.015,0-.032,0-.05a1.488,1.488,0,0,0-1.107-1.438l-.01,0a1.526,1.526,0,0,0-.4-.059h-2.32l.011.075a2.023,2.023,0,0,1,.018.279,2.13,2.13,0,0,1-.792,1.659l0,0a1.956,1.956,0,0,1-1.261.459c-.056,0-.111,0-.166-.007h.007a2.04,2.04,0,0,1-1.508-.758l0,0a2.158,2.158,0,0,1-.454-1.651v.011l.011-.076H6.559a1.506,1.506,0,0,0-1.432,1.5c0,.026,0,.051,0,.077V18.3a1.541,1.541,0,0,0,1.533,1.4c.034,0,.068,0,.1,0H6.758q1.405.012,2.813.007c.151-.012.326-.019.5-.019s.353.007.527.02h-.023c.324.046.6.18.666.525a.6.6,0,0,1,.012.125.643.643,0,0,1-.479.621h0C10.744,21,8.527,21,7.217,21ZM10.262,4.356V5c0,.5-.005,1.029.011,1.551A.813.813,0,0,0,10.3,6.7V6.69a.764.764,0,0,0,.731.557h0a.742.742,0,0,0,.2-.027h-.005a.766.766,0,0,0,.606-.748c0-.015,0-.031,0-.046V4.5a.492.492,0,0,0-.007-.078v0a.586.586,0,0,1-.006-.063h0V4.291H10.262Z" transform="translate(-3.812 -3.001)"/>
</svg>
