<svg xmlns="http://www.w3.org/2000/svg" width="15.801" height="19.992" viewBox="0 0 15.801 19.992">
  <g id="clipboard-check-list" transform="translate(-4.098 -2.003)">
    <path id="Path_145" data-name="Path 145" d="M19.791,6.2a3.036,3.036,0,0,0-2.915-2.224H14.249V2.661a.655.655,0,0,0-.651-.65h0Q12,2,10.4,2h0a.639.639,0,0,0-.638.623h0V3.979H7.124a3.031,3.031,0,0,0-2.911,2.2L4.208,6.2a3.164,3.164,0,0,0-.11.838v0h0v12.09a2.34,2.34,0,0,0,.1.616l0-.017.005.035a3,3,0,0,0,1.233,1.718l.011.007c.06.039.123.078.186.115a2.87,2.87,0,0,0,.756.3l.02,0a2.4,2.4,0,0,0,.251.051l.014,0c.029.006.051.008.074.011l.061.008a1.544,1.544,0,0,0,.223.015H17.1a.936.936,0,0,0,.221-.033l-.006,0a3.387,3.387,0,0,0,2.5-2.282l.006-.024a1.7,1.7,0,0,0,.072-.487V7.031a3.265,3.265,0,0,0-.115-.85l0,.023Zm-8.7-1.578V3.341H12.9l.018,2.118c0,.043.006.094.006.144a1.678,1.678,0,0,1-.142.677l0-.011a.893.893,0,0,1-.606.451h-.006a.967.967,0,0,1-.185.018h0a.887.887,0,0,1-.564-.2h0a1.079,1.079,0,0,1-.346-.793V5.73h0c-.007-.1-.011-.218-.011-.336s0-.236.012-.352v.016c.006-.142.012-.288.009-.432ZM18,20.236a1.708,1.708,0,0,1-1.142.434c-.038,0-.075,0-.112,0H15.3c-1.078,0-2.293.007-3.234,0l-.106.006h-4.8a1.935,1.935,0,0,1-.254-.018h.01a1.729,1.729,0,0,1-.495-.147l.01,0c-.051-.024-.1-.049-.147-.077a1.723,1.723,0,0,1-.849-1.372V7.118c0-.024,0-.053,0-.081a1.728,1.728,0,0,1,.816-1.469l.007,0a1.338,1.338,0,0,1,.137-.076l.009,0a1.734,1.734,0,0,1,.761-.173l.093,0H9.775l-.02.143a2.243,2.243,0,0,0-.021.318,2.363,2.363,0,0,0,.517,1.48l0-.005a2.2,2.2,0,0,0,1.625.831h.005c.046,0,.1.006.153.006a2.128,2.128,0,0,0,1.375-.5l0,0a2.313,2.313,0,0,0,.861-1.8,2.367,2.367,0,0,0-.023-.328V5.47l-.019-.144h2.62a1.825,1.825,0,0,1,.472.07l-.013,0a1.7,1.7,0,0,1,1.266,1.638c0,.027,0,.055,0,.082v7.995c0,.021,0,.046,0,.071s0,.05,0,.075v3.591c0,.031,0,.067,0,.1s0,.073,0,.108v0h.012A1.713,1.713,0,0,1,18,20.234l0,0Z"/>
    <path id="Path_146" data-name="Path 146" d="M16.463,11.131H11.448a.531.531,0,0,0,0,1.062h5.015a.531.531,0,0,0,0-1.062Z"/>
    <path id="Path_147" data-name="Path 147" d="M7.625,12.809a.536.536,0,0,0,.752,0h0l1.539-1.542a.531.531,0,1,0-.751-.751L8,11.681l-.2-.2a.531.531,0,1,0-.751.752h0Z"/>
    <path id="Path_148" data-name="Path 148" d="M16.463,14.84H11.425a.532.532,0,0,0,0,1.064h5.061a.532.532,0,1,0,0-1.064h-.023Z"/>
    <path id="Path_149" data-name="Path 149" d="M9.164,14.225,8,15.39l-.2-.2a.531.531,0,1,0-.751.752h0l.571.571a.528.528,0,0,0,.377.157.534.534,0,0,0,.361-.141h0l1.557-1.556a.531.531,0,1,0-.752-.751h0Z"/>
  </g>
</svg>
