<svg xmlns="http://www.w3.org/2000/svg" width="18" height="18.001" viewBox="0 0 18 18.001">
  <g id="clock-circle" transform="translate(-3 -3)">
    <path id="Path_152" data-name="Path 152" d="M11.763,8.447h0a.661.661,0,0,0-.661.661V12.78a.643.643,0,0,0,.193.46h0l2.468,2.472a.642.642,0,0,0,.456.189h0a.69.69,0,0,0,.476-.2h0a.667.667,0,0,0,0-.93h0L12.427,12.5V9.107h0a.661.661,0,0,0-.661-.661h0Z"/>
    <path id="Path_153" data-name="Path 153" d="M21,11.994A9.01,9.01,0,0,0,12,3H12A9,9,0,0,0,3,12v.006H3a9,9,0,0,0,15.368,6.355h0A8.91,8.91,0,0,0,21,12.027ZM12,19.68h0A7.677,7.677,0,0,1,12,4.326h0A7.677,7.677,0,0,1,12,19.68Z"/>
  </g>
</svg>
