<svg xmlns="http://www.w3.org/2000/svg" width="20.177" height="15.834" viewBox="0 0 20.177 15.834">
  <g id="cloud-arrow-up" transform="translate(-1.912 -4.083)">
    <path id="Path_158" data-name="Path 158" d="M22.085,13.22c-.013-.045-.025-.091-.034-.136a4.338,4.338,0,0,0-3.1-3.672L18.923,9.4a.351.351,0,0,1-.265-.266v0a6.391,6.391,0,0,0-1.557-2.8l0,0a6.805,6.805,0,0,0-6.835-2.027l.048-.011a6.9,6.9,0,0,0-5.2,5.885l0,.032c0,.006,0,.013,0,.02a.351.351,0,0,1-.333.351h0a3.779,3.779,0,0,0,.909,7.447H8.743a.1.1,0,0,0,.057-.024h0a.615.615,0,0,0,0-1.21h0a.1.1,0,0,0-.056-.023H8.629c-1.009,0-2.012.024-3.015-.01A2.371,2.371,0,0,1,3.467,15.4l-.006-.015a2.4,2.4,0,0,1,.2-2.577l0,.006a2.435,2.435,0,0,1,1.985-1.073H5.72a.644.644,0,0,0,.619-.643V11.07h0q.014-.157.021-.315a5.359,5.359,0,0,1,1.308-3.3l-.006.007a5.534,5.534,0,0,1,5.063-2l-.029,0a5.456,5.456,0,0,1,3.387,1.675l0,0a5.552,5.552,0,0,1,1.464,2.7l.007.037a.7.7,0,0,0,.435.579l0,0a2.477,2.477,0,0,0,.328.078l.016,0a3.151,3.151,0,0,1-.662,6.231h-2.4a.631.631,0,0,0,0,1.262H15.3c.823,0,1.646.016,2.469,0a4.378,4.378,0,0,0,4.069-2.938l.009-.031a8.843,8.843,0,0,0,.235-.928l.011-.065a.085.085,0,0,0,0-.026h0v-.8a.093.093,0,0,0,0-.024h0Z"/>
    <path id="Path_159" data-name="Path 159" d="M14.514,13.983c-.688-.691-1.374-1.382-2.066-2.067l-.028-.028a.595.595,0,0,0-.841.021h0c-.694.686-1.381,1.379-2.062,2.065a.633.633,0,0,0,0,.892l.009.009a.633.633,0,0,0,.895-.009h0l.954-.976v5.4a.631.631,0,1,0,1.262,0h0V13.875l.974.991a.623.623,0,0,0,.884,0h0l.009-.008a.626.626,0,0,0,.01-.876h0Z"/>
  </g>
</svg>
