<svg xmlns="http://www.w3.org/2000/svg" width="19.633" height="13.486" viewBox="0 0 19.633 13.486">
  <path id="envelope" d="M20.043,5.257H3.958A1.776,1.776,0,0,0,2.184,7.031V16.97a1.776,1.776,0,0,0,1.774,1.773H20.043a1.776,1.776,0,0,0,1.774-1.773V7.031a1.776,1.776,0,0,0-1.774-1.774h0Zm.486,2.154a.32.32,0,0,1-.007.063v0L12.6,12.562A1.363,1.363,0,0,1,12,12.7a1.384,1.384,0,0,1-.6-.138l.008,0L3.477,7.475a.777.777,0,0,1-.009-.122.872.872,0,0,1,.142-.478l0,0V6.873c.044-.078.2-.331.408-.331H19.972c.2,0,.365.254.41.332a1.068,1.068,0,0,1,.146.478v0Zm0,9.559a.487.487,0,0,1-.486.486H3.958a.487.487,0,0,1-.486-.486h0V8.993l7.256,4.665a2.591,2.591,0,0,0,1.28.333,2.619,2.619,0,0,0,1.293-.34l-.013.007L20.536,9Z" transform="translate(-2.184 -5.257)"/>
</svg>
