<svg xmlns="http://www.w3.org/2000/svg" width="14.957" height="19.998" viewBox="0 0 14.957 19.998">
  <path id="file" d="M19.113,7.266l-4.9-4.922A1.161,1.161,0,0,0,13.385,2H7.015A2.508,2.508,0,0,0,4.521,4.5v15a2.51,2.51,0,0,0,2.5,2.5h9.955a2.51,2.51,0,0,0,2.5-2.5V8.131a1.216,1.216,0,0,0-.365-.864h0ZM18.208,19.5a1.244,1.244,0,0,1-1.235,1.242H7.017A1.246,1.246,0,0,1,5.778,19.5V4.5A1.248,1.248,0,0,1,7.019,3.261h6.837V5.753a1.881,1.881,0,0,0,1.872,1.88h2.48Z" transform="translate(-4.521 -2.001)"/>
</svg>
