<svg xmlns="http://www.w3.org/2000/svg" width="15.499" height="20.001" viewBox="0 0 15.499 20.001">
  <path id="file-lines" d="M6.84,22H6.806A2.556,2.556,0,0,1,4.25,19.5V4.5A2.557,2.557,0,0,1,6.806,2h6.629a1.238,1.238,0,0,1,.858.344h0l5.084,4.923a1.187,1.187,0,0,1,.372.864V19.5A2.556,2.556,0,0,1,17.193,22H6.84ZM5.552,4.5v15a1.272,1.272,0,0,0,1.271,1.241H17.175A1.264,1.264,0,0,0,18.439,19.5h0V7.633H15.845A1.916,1.916,0,0,1,13.93,5.756V3.261H6.823A1.271,1.271,0,0,0,5.552,4.5v0ZM8.461,17.311a.528.528,0,0,1,0-1.054H12.3a.558.558,0,0,1,.38.17h0a.514.514,0,0,1,.146.359v.02h0a.542.542,0,0,1-.52.507H8.461Zm0-2.57a.527.527,0,0,1,0-1.054H15.53a.546.546,0,0,1,.38.169h0a.515.515,0,0,1,.145.359v.021h0a.54.54,0,0,1-.521.505H8.461Zm0-2.569a.527.527,0,0,1,0-1.054H15.53a.546.546,0,0,1,.38.169h0a.515.515,0,0,1,.145.359v.021h0a.54.54,0,0,1-.521.505H8.461Z" transform="translate(-4.25 -1.999)"/>
</svg>
