<svg xmlns="http://www.w3.org/2000/svg" width="17.68" height="11.188" viewBox="0 0 17.68 11.188">
  <g id="filter-bars" transform="translate(-3.16 -6.406)">
    <path id="Path_268" data-name="Path 268" d="M17.928,11.219H5.908c-.023,0-.051,0-.078,0a.785.785,0,0,0,0,1.57.738.738,0,0,0,.082,0H17.931c.023,0,.051,0,.078,0a.785.785,0,0,0,0-1.57.738.738,0,0,0-.082,0h0Z"/>
    <path id="Path_269" data-name="Path 269" d="M15.4,16.028H8.43a.786.786,0,0,0,0,1.562H15.4a.721.721,0,0,0,.083,0,.785.785,0,0,0,0-1.57.846.846,0,0,0-.087,0h0Z"/>
    <path id="Path_270" data-name="Path 270" d="M19.971,6.41H3.862a.786.786,0,0,0,0,1.562H19.972a.722.722,0,0,0,.083,0,.785.785,0,1,0,0-1.57.846.846,0,0,0-.087.005h0Z"/>
  </g>
</svg>
