<svg xmlns="http://www.w3.org/2000/svg" width="18.704" height="17.67" viewBox="0 0 18.704 17.67">
  <path id="filter" d="M12.014,3.165h7.4a1.94,1.94,0,0,1,1.4,3.283h0l-6.132,6.736a.909.909,0,0,0-.264.641c0,.015,0,.03,0,.045v0c.015,1.127,0,2.252.008,3.378,0,.013,0,.028,0,.043a.854.854,0,0,1-.341.683l0,0q-1.635,1.3-3.263,2.613l-.1.08a.67.67,0,0,1-.753.094l0,0a.683.683,0,0,1-.4-.62c0-.016,0-.031,0-.047v-6.36c0-.008,0-.018,0-.027a.587.587,0,0,0-.169-.414h0l-6.2-6.817a1.941,1.941,0,0,1,.72-3.183l.013,0a2.283,2.283,0,0,1,.723-.115H4.7q3.659-.013,7.315-.009ZM10.959,18.674a.67.67,0,0,0,.089-.045l0,0c.624-.506,1.255-1.01,1.883-1.525a.369.369,0,0,0,.1-.257h0c.007-1.163.009-2.325,0-3.486,0-.009,0-.02,0-.031a1,1,0,0,1,.278-.691h0q3.118-3.43,6.227-6.859c.074-.08.144-.162.218-.241a.559.559,0,0,0,.146-.656v0a.583.583,0,0,0-.532-.347.532.532,0,0,0-.069,0H4.714a.587.587,0,0,0-.106-.01.578.578,0,0,0-.351,1.037h0q3.222,3.533,6.433,7.078a.949.949,0,0,1,.269.664v.022h0c-.007,1.175,0,2.353,0,3.528Z" transform="translate(-2.649 -3.165)"/>
</svg>
