<svg xmlns="http://www.w3.org/2000/svg" width="19.195" height="15.982" viewBox="0 0 19.195 15.982">
  <path id="folder" d="M21.518,8.341a2.463,2.463,0,0,0-2.39-1.892H14.269A2.47,2.47,0,0,1,12.5,5.7h0l-.329-.33c-.181-.184-.369-.373-.557-.556a2.536,2.536,0,0,0-1.79-.8h0c-1.57-.007-3.14-.008-4.661,0a2.3,2.3,0,0,0-1.508.6l0,0a2.7,2.7,0,0,0-.828,2.554l0-.018a.943.943,0,0,1,.038.268h0a1.2,1.2,0,0,1-.14.327l0-.005A2.372,2.372,0,0,0,2.4,8.932a2.226,2.226,0,0,0,.013.246v-.01q.074.794.151,1.582c.071.736.144,1.494.213,2.245q.095,1.061.185,2.12c.07.821.144,1.67.22,2.5v.039A2.538,2.538,0,0,0,5.7,19.99h0a1.808,1.808,0,0,0,.208-.008h6.011v-.007h6.235c.054,0,.108,0,.161,0h0a2.481,2.481,0,0,0,2.3-1.548l.006-.017a5.222,5.222,0,0,0,.259-1.641v-.036c.07-.7.132-1.406.193-2.091q.049-.547.1-1.1c.128-1.374.264-2.857.416-4.533,0-.035,0-.076,0-.117a2,2,0,0,0-.084-.577l0,.014ZM18.98,7.73c.03,0,.065,0,.1,0a1.288,1.288,0,0,1,.306.037l-.009,0A1.255,1.255,0,0,1,20.3,9.282l0-.009c-.083.708-.143,1.431-.2,2.13-.026.312-.052.621-.08.933q-.069.755-.135,1.51c-.107,1.207-.217,2.456-.336,3.685A1.3,1.3,0,0,1,18.261,18.7H5.682A1.236,1.236,0,0,1,4.448,17.46v0h0c-.143-1.6-.3-3.223-.438-4.8l-.134-1.453c-.018-.206-.038-.412-.057-.617-.048-.509-.1-1.034-.136-1.552,0-.027,0-.059,0-.092s0-.064,0-.1v0A1.231,1.231,0,0,1,4.9,7.718h7.129v.006ZM9.886,6.443c-.856,0-1.739-.007-2.606.008-.3-.019-.643-.031-.991-.031a16.132,16.132,0,0,0-2.2.15l.084-.009c-.046.01-.076.007-.092-.008a.214.214,0,0,1-.013-.125V6.372a1.176,1.176,0,0,1,1.077-1.08h0c.524-.006,1.052-.007,1.577-.007H9.874a.871.871,0,0,1,.523.173l0,0a12.249,12.249,0,0,1,1.035.978l.006.006c-.515.005-1.045.007-1.551,0ZM7.28,6.452v.024Z" transform="translate(-2.401 -4.008)"/>
</svg>
