<svg xmlns="http://www.w3.org/2000/svg" width="17.55" height="23.391" viewBox="0 0 17.55 23.391">
  <g id="Group_193548" data-name="Group 193548" transform="translate(-986.94 -185)">
    <g id="word-icon" transform="translate(986.94 185)">
      <path id="Path_17643" data-name="Path 17643" d="M12.49,1.357v0H4.45A2.931,2.931,0,0,0,1.519,4.276V21.823A2.931,2.931,0,0,0,4.45,24.745H16.139a2.931,2.931,0,0,0,2.931-2.922V7.933Zm5.115,20.468h0a1.459,1.459,0,0,1-1.46,1.458H4.45a1.463,1.463,0,0,1-1.465-1.46V4.276A1.464,1.464,0,0,1,4.45,2.813h8.038V5.739A2.193,2.193,0,0,0,14.68,7.933h2.926Z" transform="translate(-1.519 -1.354)" fill="#06090f"/>
      <g id="W" transform="translate(4.863 9.888)">
        <g id="W-2" style="isolation: isolate">
          <g id="Group_11362" data-name="Group 11362" style="isolation: isolate">
            <path id="Path_17644" data-name="Path 17644" d="M38.166,79.7l-1-3.912L36.176,79.7h-1.29L33.255,74h1.358l1,4.117L36.7,74h.948l1.076,4.117L39.712,74h1.366l-1.623,5.7Z" transform="translate(-33.255 -74.002)" fill="#06090f"/>
          </g>
        </g>
      </g>
    </g>
  </g>
</svg>
