<svg xmlns="http://www.w3.org/2000/svg" width="17.92" height="18.002" viewBox="0 0 17.92 18.002">
  <path id="house-solid" d="M20.6,10.858,12.82,3.317a1.216,1.216,0,0,0-1.639,0h0L3.4,10.855a1.2,1.2,0,0,0-.362.856v7.164A2.152,2.152,0,0,0,5.187,21h5.3a.428.428,0,0,0,.325-.157h0a.58.58,0,0,0,.135-.373v-.006h0V16.454a1.124,1.124,0,0,1,1.123-1.124h0a1.155,1.155,0,0,1,.985,1.141v0h0v3.993a.567.567,0,0,0,.153.388h0a.427.427,0,0,0,.3.145H18.8a2.158,2.158,0,0,0,2.158-2.124V11.714a1.2,1.2,0,0,0-.36-.854h0Z" transform="translate(-3.04 -3)"/>
</svg>
