<svg xmlns="http://www.w3.org/2000/svg" width="17.92" height="18" viewBox="0 0 17.92 18">
  <path id="house" d="M13.724,21h5.03a2.208,2.208,0,0,0,2.206-2.18h0v-7.1a1.255,1.255,0,0,0-.382-.9h0L12.864,3.339a1.27,1.27,0,0,0-1.729,0h0L3.423,10.814a1.26,1.26,0,0,0-.383.9v7.1A2.207,2.207,0,0,0,5.244,21h5.03a1.254,1.254,0,0,0,1.248-1.252V15.864a.443.443,0,0,1,.439-.394l.04,0h.031a.448.448,0,0,1,.444.391v3.885A1.253,1.253,0,0,0,13.722,21h0Zm-1.656-6.975h-.073a1.924,1.924,0,0,0-1.922,1.846v3.682H5.227a.758.758,0,0,1-.748-.723V11.8L12,4.513,19.512,11.8V18.82a.791.791,0,0,1-.784.734H13.919V15.866a1.931,1.931,0,0,0-1.846-1.84h0Z" transform="translate(-3.04 -3)"/>
</svg>
