<svg xmlns="http://www.w3.org/2000/svg" width="11.76" height="17.998" viewBox="0 0 11.76 17.998">
  <path id="microphone" d="M11.8,21H9.53a.72.72,0,0,1-.52-.22h0a.644.644,0,0,1-.155-.42.658.658,0,0,1,.006-.09v0a.662.662,0,0,1,.654-.569l.055,0h1.775v-1.21l-.113-.02c-.155-.026-.319-.053-.474-.084A5.854,5.854,0,0,1,6.8,15.381l-.015-.032a5.663,5.663,0,0,1-.66-2.669v-.016h0c0-.008,0-.018,0-.028a.628.628,0,0,1,.6-.627h.006l.047,0a.633.633,0,0,1,.631.576v0c.018.136.031.279.051.415a5.33,5.33,0,0,0,.15.926L7.6,13.89A4.393,4.393,0,0,0,10.3,16.9l.03.01a4.638,4.638,0,0,0,1.715.341h0a4.661,4.661,0,0,0,4.494-3.941l0-.026c.013-.122.026-.252.033-.388.007-.112.018-.234.031-.352a.627.627,0,0,1,.61-.538h0L17.239,12a.642.642,0,0,1,.46.2h0a.629.629,0,0,1,.181.442v.011h0a5.884,5.884,0,0,1-4.138,5.61l-.042.011c-.252.077-.5.124-.771.181-.091.013-.182.033-.279.053v1.2h1.732a1.258,1.258,0,0,1,.349.049l-.009,0a.639.639,0,0,1,.421.6.763.763,0,0,1-.007.1v0a.65.65,0,0,1-.563.544h0a.635.635,0,0,1-.091.007H11.8ZM8.623,13.614a4.52,4.52,0,0,1-.145-1.058v-.005c-.007-1.768-.02-3.869,0-6,0-.037,0-.08,0-.123a3.423,3.423,0,0,1,2.067-3.143l.022-.009a1.49,1.49,0,0,1,.227-.1l.012,0A3.392,3.392,0,0,1,11.91,3h.08a3.526,3.526,0,0,1,1.14.189l-.025-.007a3.065,3.065,0,0,1,.626.262l-.016-.008A3.366,3.366,0,0,1,15.5,6.4c0,.041,0,.082,0,.123V6.519c.02,2.086.014,4.142.007,6.067v.045a3.518,3.518,0,0,1-2.719,3.425l-.024,0a3.018,3.018,0,0,1-.74.09h-.032A3.533,3.533,0,0,1,8.627,13.63L8.621,13.6Zm3.1-9.335A2.19,2.19,0,0,0,9.782,6.384v0c-.02,2.476-.013,4.5,0,6.37a2.209,2.209,0,0,0,2.206,2.113h0a2.118,2.118,0,0,0,.526-.068l-.015,0a2.2,2.2,0,0,0,1.71-2.14v-.033c.007-.7.007-1.412.007-2.1-.007-.317-.007-.636-.007-.958v-.8c.007-.72.007-1.474,0-2.2a2.869,2.869,0,0,0-.081-.679l0,.02a2.2,2.2,0,0,0-2.123-1.646h-.081a2.129,2.129,0,0,0-.227.012h.009Z" transform="translate(-6.12 -2.998)"/>
</svg>
