<svg xmlns="http://www.w3.org/2000/svg" width="19.273" height="16.307" viewBox="0 0 19.273 16.307">
  <g id="sliders" transform="translate(-2.363 -3.846)">
    <path id="Path_516" data-name="Path 516" d="M20.985,11.368h-10.6A2.726,2.726,0,0,0,5.1,11.349l0,.019H3.011a.647.647,0,0,0,0,1.294H5.079a2.73,2.73,0,0,0,5.314.018l0-.019H20.985a.647.647,0,0,0,0-1.294h0ZM6.446,12.64a1.4,1.4,0,0,1-.148-.625h0a1.441,1.441,0,0,1,2.882,0h0a1.4,1.4,0,0,1-.153.633l0-.008-.01.022h.011c-.011.018-.021.033-.032.048H9a.5.5,0,0,0-.033.051,1.044,1.044,0,0,1-.063.1,1.4,1.4,0,0,1-2.331.005l0-.005a.9.9,0,0,1-.06-.091l0,0a.459.459,0,0,0-.035-.051.346.346,0,0,1-.031-.047h.012Z"/>
    <path id="Path_517" data-name="Path 517" d="M3.011,7.266H13.192a2.725,2.725,0,0,0,5.272.019l0-.019h2.514a.648.648,0,1,0,0-1.3H18.5a2.733,2.733,0,0,0-5.324-.018l0,.019H3.011a.648.648,0,1,0,0,1.3h0ZM16.93,5.659l.01.011A1.421,1.421,0,0,1,16.593,7.8l-.006,0h-.015a1.434,1.434,0,0,1-.294.132l-.01,0c-.025.008-.05.016-.077.023a1.263,1.263,0,0,1-.363.052,1.3,1.3,0,0,1-.372-.054l.009,0a.193.193,0,0,1-.052-.015l-.027-.008A1.457,1.457,0,0,1,15.08,7.8l.007,0c-.005-.005-.01-.005-.016-.009a1.426,1.426,0,0,1-.35-2.133l0,0,.007-.008.024-.029a1.447,1.447,0,0,1,.606-.4l.01,0c.028-.009.056-.018.084-.025a1.354,1.354,0,0,1,.377-.057h.016a1.419,1.419,0,0,1,.373.06l-.01,0c.028.007.055.016.083.026a1.443,1.443,0,0,1,.616.4h0l.024.033Z"/>
    <path id="Path_518" data-name="Path 518" d="M20.985,16.812H18.5a2.734,2.734,0,0,0-5.331-.018l0,.018H3.011a.647.647,0,1,0,0,1.294H13.2a2.724,2.724,0,0,0,5.272.019l0-.019h2.518a.647.647,0,1,0,0-1.294h0Zm-4.4,1.826h-.008l-.011,0a1.363,1.363,0,0,1-.284.128l-.01,0-.026.009c-.017,0-.033.011-.051.015a1.41,1.41,0,0,1-.361.052h0a1.394,1.394,0,0,1-.369-.054l.01,0-.069-.021h-.01a1.443,1.443,0,0,1-.3-.134l.007,0-.011,0h-.009a1.427,1.427,0,0,1-.364-2.126l0,0,.007-.009.031-.038a1.438,1.438,0,0,1,.6-.409l.01,0,.085-.026a1.272,1.272,0,0,1,.38-.057,1.313,1.313,0,0,1,.389.059l-.009,0,.075.023H16.3a1.457,1.457,0,0,1,.613.41v0c.013.016.026.03.039.048a1.409,1.409,0,0,1,.324.9h0a1.434,1.434,0,0,1-.684,1.217l-.006,0Z"/>
  </g>
</svg>
