<svg xmlns="http://www.w3.org/2000/svg" width="20" height="20" viewBox="0 0 20 20">
  <g id="user-circle" transform="translate(-2 -2)">
    <path id="Path_555" data-name="Path 555" d="M19.053,4.911A9.941,9.941,0,0,0,12.011,2h-.075a10,10,0,1,0,7.118,2.912h0Zm-7.12-1.434h.021A8.581,8.581,0,0,1,18.06,18.054l0,0c-.01-.03-.022-.06-.034-.09-.069-.182-.147-.387-.24-.579a5.013,5.013,0,0,0-4.568-2.962H13.2c-.983-.032-1.989-.017-2.991.049a4.728,4.728,0,0,0-3.263,1.659l-.006.007A5.119,5.119,0,0,0,5.87,18l-.01.036-.008.02A8.581,8.581,0,0,1,11.928,3.474h0ZM7.468,17.987l.072-.132a3.712,3.712,0,0,1,2.173-1.731l.026-.007a4.744,4.744,0,0,1,.668-.162l.031,0a11.8,11.8,0,0,1,1.5-.152h.024c.088,0,.176-.006.263-.006h0a6.858,6.858,0,0,1,1.19.1l-.041-.006a4.611,4.611,0,0,1,2.22.969l-.009-.007a3.294,3.294,0,0,1,.743.907l.009.017c.352.649.595,1.3,0,1.631a8.918,8.918,0,0,1-4.092,1.176h-.272a9.238,9.238,0,0,1-4.412-1.178l.047.024a1.093,1.093,0,0,1-.367-.268h0c-.248-.319.028-.814.23-1.175Z"/>
    <path id="Path_556" data-name="Path 556" d="M11.948,13.4h.026a3.219,3.219,0,0,0,0-6.438h-.025a3.219,3.219,0,1,0,0,6.438h0Zm1.214-1.952a1.62,1.62,0,0,1-1.143.474h-.048l-.075,0a1.668,1.668,0,0,1-1.668-1.668c0-.02,0-.04,0-.06v0c0-.019,0-.04,0-.062A1.634,1.634,0,0,1,10.7,8.978h0a1.741,1.741,0,1,1,2.457,2.464h0Z"/>
  </g>
</svg>
