<svg xmlns="http://www.w3.org/2000/svg" width="18.851" height="18.305" viewBox="0 0 18.851 18.305">
  <path id="word" d="M8.68,21.153A1.958,1.958,0,0,1,6.726,19.2V17.575H3.958a1.384,1.384,0,0,1-1.383-1.383V8.506A1.384,1.384,0,0,1,3.958,7.123H6.726V4.8A1.958,1.958,0,0,1,8.68,2.848h7.8A4.96,4.96,0,0,1,21.426,7.8V19.2a1.958,1.958,0,0,1-1.954,1.954H8.68ZM7.938,19.2a.745.745,0,0,0,.742.743H19.472a.745.745,0,0,0,.743-.743V8.107H17.566a1.393,1.393,0,0,1-1.392-1.391V4.059H8.681a.746.746,0,0,0-.742.743V7.124h3.7a1.384,1.384,0,0,1,1.383,1.382v7.685a1.384,1.384,0,0,1-1.382,1.383H7.938Zm.542-4.452H9.744l1.171-4.793H9.893l-.822,3.734-.962-3.4H7.1L6.172,13.6,5.334,9.949H4.312l1.165,4.8H6.734l.87-3.1Zm8.925-8.034a.152.152,0,0,0,.152.152H20.03a3.87,3.87,0,0,0-2.592-2.612l-.027-.007Zm-2.963,8.342a.5.5,0,0,1,0-1h4.426a.5.5,0,0,1,0,1H14.442Zm0-2.032a.5.5,0,0,1,0-1h4.426a.5.5,0,0,1,0,1H14.442Zm0-2.033a.5.5,0,0,1,0-1h4.426a.5.5,0,0,1,0,1H14.442Z" transform="translate(-2.575 -2.848)"/>
</svg>
